@startuml
    skinparam {
        NoteBackgroundColor #whiteSmoke
        ArrowColor #green
        NoteBorderColor #green
    }

'Initial/end states
state init as "USE_CASE_MANAGEMENT"

init ---> CreateUseCase
CreateUseCase ---> ShowUseCases

'Use case specfication
state CreateUseCase {
    state createOrdered as " "
    state editUseCase as " "
    state editedUseCase  <<choice>>
    state requireToConfirm  as " "
    state errorValidation as " "
    state toConfirm as " "
    state systemSave as " "

    'Main path
    [*] --> createOrdered
    note on link
        <b>User request</b>
        * to create a use case
    end note

    createOrdered --> editUseCase
    note on link
        <b>System require</b>
        * use case name
        <b>System allows</b>
        * Cancel
    end note
    editUseCase --> editedUseCase
    note on link
        <b>User provide</b>
        * use case name
    end note
    editedUseCase --> toConfirm
    toConfirm --> requireToConfirm
            note on link
            <b>System allow</b>
             * confirm
             * cancel
            end note
    requireToConfirm --> systemSave
        note on link
        <b>User</b> confirm
        end note
    systemSave --> [*]
        note on link
            <b>System shows</b>
            * The use case has been created
        end note


    'variation path
    editedUseCase -[#red]-> errorValidation
        note on link
        [ length(useCaseName) out of 5,25 ]
        end note

    errorValidation -[#red]-> createOrdered
            note on link
            <b>System shows</b>
            * The name length is not correct
            end note

    'variation path
    requireToConfirm -[#red]-> [*]
    note on link
          <b>User</b> cancel
    end note

    'variation path
    editUseCase -[#red]-> [*]
    note on link
          <b>User</b> cancel
    end note

}

@enduml
