@startuml
skinparam {
    NoteBackgroundColor #whiteSmoke
}
    state PROJECT_MANAGEMENT as ":PROJECT_MANAGEMENT"
    state 2 as ":PROJECT_MANAGEMENT"

    PROJECT_MANAGEMENT --> OpenIterations
    note on link
        User requests to Open Iterations
    end note

    state OpenIterations {
        [*] --> [*]
    }

    OpenIterations --> 2
            note on link
                <b>System shows</b>
                * for each iteration in project ordered by number (ASC)
                ** start date
                ** end date
                ** duration (bussiness days)
                ** <color:red>dias transcurridos (bussiness days) and his percentage</color>
                ** <color:red>//traducirlo al ingles//</color>
                <b>System allows</b>
                * Open openPhases
                * Open iteration
                * Open usecases
                * Open members
                * Close system
            end note


@enduml
