@startuml

state 0 as " :MEMBER_MANAGEMENT"
state 6 as " :MEMBER_MANAGEMENT"

skinparam {
    NoteBackgroundColor #whiteSmoke
}

0 --> deleteMember
note on link
    User requests to delete member
end note

state deleteMember {

state 2 as " "
state 1 as " " #LawnGreen
state 3 as " " #LawnGreen
state 7 as " "
state 4 <<choice>>



[*] --> 1
note on link
<b>System shows</b>
* all members
<b>Systems requests</b>
* introduce member to delete
* confirm step
* cancel
end note

1 --> 3
note on link
User
* introduces a member to delete
* and requests to confirm step
end note


3 --> 2
note on link
    User requests to cancel
end note

3 --> 4
note on link
    User requests to confirm delete member
end note


4 --> 7
note on link
[pending activities or activities assigned]
end note

7 --> [*]
note on link
<b>System shows</b>
* can't delete this member he has assigned activities
end note

2 --> [*]
note on link
<b>System shows</b>
* operation cancelled
end note

4 --> [*]
note on link
<b>System shows</b>
* member was deleted
end note

}

deleteMember --> 6
note on link
<b>System shows</b>
* all members in the project, his names and roles
<b>System allows</b>
* create member
* update member
* delete member
* open iterations
* open iteration
* open use cases
end note
@enduml
